<svg xmlns="http://www.w3.org/2000/svg" xmlns:xlink="http://www.w3.org/1999/xlink" version="1.1" x="0px" y="0px" viewBox="0 0 100 100" enable-background="new 0 0 100 100" xml:space="preserve"><path fill="#ddd" d="M10.6,55.5L34,40c0.7-0.6,2.5-0.2,2.5,1.4v9.4h34.9c4.4,0,5.9-1.5,5.9-5.9v-2.4c0-4.4-1.5-5.9-5.9-5.9H53.1  c-1,0-1.8-0.7-1.8-1.8v-8.2c0-1,0.8-1.8,1.8-1.8h18.2c10.9,0,17.7,6.9,17.7,17.8v2.1c0,10.9-6.8,17.8-17.7,17.8H36.5v9.6  c0,1.7-1.5,2-2.5,1.3L10.6,58.2c-0.5-0.4-0.8-0.9-0.8-1.4C9.8,56.2,10.1,55.8,10.6,55.5z"></path></svg>