<svg xmlns="http://www.w3.org/2000/svg" xmlns:xlink="http://www.w3.org/1999/xlink" version="1.1" x="0px" y="0px" viewBox="0 0 80 80" enable-background="new 0 0 80 80" xml:space="preserve"><g><path fill-rule="evenodd" clip-rule="evenodd" d="M57.145,20.069H22.857c-1.578,0-2.857,1.279-2.857,2.857v22.857   c0,1.578,1.279,2.855,2.857,2.855h5.715v7.156c0,0.002,0,0.004,0,0.006c0.01,0.781,0.646,1.41,1.428,1.41   c0.455,0,0.859-0.213,1.121-0.543l8.057-8.029h17.967c1.576,0,2.855-1.277,2.855-2.855V22.927   C60,21.349,58.721,20.069,57.145,20.069L57.145,20.069z M58.033,44.729c0,0.824-0.668,1.49-1.49,1.49H38.428l-7.443,7.348V46.22   h-1.516h-6.012c-0.822,0-1.49-0.666-1.49-1.49V23.667c0-0.824,0.668-1.49,1.49-1.49h33.086c0.822,0,1.49,0.666,1.49,1.49V44.729   L58.033,44.729z M53.014,30.069c0,0.551-0.447,1-1,1H31.156c-0.553,0-1-0.449-1-1l0,0c0-0.553,0.447-1,1-1h20.857   C52.566,29.069,53.014,29.517,53.014,30.069L53.014,30.069z M46.689,35.784c0,0.551-0.447,1-1,1H31.156c-0.551,0-1-0.449-1-1l0,0   c0-0.553,0.449-1,1-1h14.533C46.242,34.784,46.689,35.231,46.689,35.784L46.689,35.784z"></path></g></svg>